<?xml version="1.0" encoding="UTF-8"?>
<svg xmlns="http://www.w3.org/2000/svg" viewBox="0 0 120 121.21">
  <defs>
    <style>
      .cls-1, .cls-2 {
        fill: none;
      }

      .cls-3 {
        fill: #ecf0f1;
      }

      .cls-4 {
        fill: #452cdd;
      }

      .cls-5, .cls-6 {
        fill: #5dade2;
      }

      .cls-7 {
        fill: #dadada;
      }

      .cls-7, .cls-8, .cls-9 {
        mix-blend-mode: multiply;
      }

      .cls-8 {
        fill: #c6c6c6;
      }

      .cls-9 {
        fill: #ededed;
      }

      .cls-6, .cls-10, .cls-2 {
        mix-blend-mode: screen;
      }

      .cls-10 {
        fill: #71b6e6;
      }

      .cls-11 {
        isolation: isolate;
      }
    </style>
  </defs>
  <g class="cls-11">
    <g id="_레이어_2" data-name="레이어 2">
      <g id="Media_Icons" data-name="Media Icons">
        <g>
          <g>
            <rect class="cls-1" width="120" height="120" rx="20" ry="20"/>
            <path class="cls-2" d="m2,102V22C2,11,11,2,22,2h80c4.99,0,9.56,1.87,13.08,4.92-3.67-4.23-9.07-6.92-15.08-6.92H20C9,0,0,9,0,20v80c0,6.01,2.7,11.4,6.92,15.08-3.05-3.51-4.92-8.08-4.92-13.08Z"/>
          </g>
          <g>
            <polygon class="cls-4" points="94.33 108.03 61.67 88.03 29 108.03 29 25.46 94.33 25.46 94.33 108.03"/>
            <polygon class="cls-8" points="93.33 25.46 93.33 107.42 94.33 108.03 94.33 25.46 93.33 25.46"/>
            <g>
              <path class="cls-3" d="m90.33,32.46c-.55,0-1-.45-1-1v-2c0-.55.45-1,1-1s1,.45,1,1v2c0,.55-.45,1-1,1Z"/>
              <path class="cls-3" d="m90.33,95.92c-.55,0-1-.45-1-1v-3.97c0-.55.45-1,1-1s1,.45,1,1v3.97c0,.55-.45,1-1,1Zm0-7.93c-.55,0-1-.45-1-1v-3.97c0-.55.45-1,1-1s1,.45,1,1v3.97c0,.55-.45,1-1,1Zm0-7.93c-.55,0-1-.45-1-1v-3.97c0-.55.45-1,1-1s1,.45,1,1v3.97c0,.55-.45,1-1,1Zm0-7.93c-.55,0-1-.45-1-1v-3.97c0-.55.45-1,1-1s1,.45,1,1v3.97c0,.55-.45,1-1,1Zm0-7.93c-.55,0-1-.45-1-1v-3.97c0-.55.45-1,1-1s1,.45,1,1v3.97c0,.55-.45,1-1,1Zm0-7.93c-.55,0-1-.45-1-1v-3.97c0-.55.45-1,1-1s1,.45,1,1v3.97c0,.55-.45,1-1,1Zm0-7.93c-.55,0-1-.45-1-1v-3.97c0-.55.45-1,1-1s1,.45,1,1v3.97c0,.55-.45,1-1,1Zm0-7.93c-.55,0-1-.45-1-1v-3.97c0-.55.45-1,1-1s1,.45,1,1v3.97c0,.55-.45,1-1,1Z"/>
              <path class="cls-3" d="m91.33,102.67l-3.23-1.98c-.47-.29-.62-.9-.33-1.38.29-.47.9-.62,1.37-.33l.18.11v-.21c0-.55.45-1,1-1s1,.45,1,1v3.79Z"/>
              <path class="cls-3" d="m85.02,98.64c-.18,0-.36-.05-.52-.15l-3.61-2.21c-.47-.29-.62-.9-.33-1.38.29-.47.9-.62,1.37-.33l3.61,2.21c.47.29.62.9.33,1.38-.19.31-.52.48-.85.48Zm-7.22-4.42c-.18,0-.36-.05-.52-.15l-3.61-2.21c-.47-.29-.62-.9-.33-1.38.29-.47.9-.62,1.37-.33l3.61,2.21c.47.29.62.9.33,1.38-.19.31-.52.48-.85.48Zm-7.22-4.42c-.18,0-.36-.05-.52-.15l-3.61-2.21c-.47-.29-.62-.9-.33-1.38.29-.47.9-.62,1.37-.33l3.61,2.21c.47.29.62.9.33,1.38-.19.31-.52.48-.85.48Z"/>
              <path class="cls-3" d="m63.37,85.38c-.18,0-.36-.05-.52-.15l-1.18-.72-1.18.72c-.47.29-1.09.14-1.37-.33-.29-.47-.14-1.09.33-1.38l2.23-1.36,2.23,1.36c.47.29.62.9.33,1.37-.19.31-.52.48-.85.48Z"/>
              <path class="cls-3" d="m38.32,98.64c-.34,0-.66-.17-.85-.48-.29-.47-.14-1.09.33-1.38l3.61-2.21c.47-.29,1.09-.14,1.37.33.29.47.14,1.09-.33,1.38l-3.61,2.21c-.16.1-.34.15-.52.15Zm7.22-4.42c-.34,0-.66-.17-.85-.48-.29-.47-.14-1.09.33-1.38l3.61-2.21c.47-.29,1.09-.14,1.37.33.29.47.14,1.09-.33,1.38l-3.61,2.21c-.16.1-.34.15-.52.15Zm7.22-4.42c-.34,0-.66-.17-.85-.48-.29-.47-.14-1.09.33-1.38l3.61-2.21c.47-.29,1.09-.14,1.38.33.29.47.14,1.09-.33,1.38l-3.61,2.21c-.16.1-.34.15-.52.15Z"/>
              <path class="cls-3" d="m32,102.67v-3.79c0-.55.45-1,1-1s1,.45,1,1v.21l.18-.11c.47-.29,1.09-.14,1.37.33.29.47.14,1.09-.33,1.38l-3.23,1.98Z"/>
              <path class="cls-3" d="m33,95.92c-.55,0-1-.45-1-1v-3.97c0-.55.45-1,1-1s1,.45,1,1v3.97c0,.55-.45,1-1,1Zm0-7.93c-.55,0-1-.45-1-1v-3.97c0-.55.45-1,1-1s1,.45,1,1v3.97c0,.55-.45,1-1,1Zm0-7.93c-.55,0-1-.45-1-1v-3.97c0-.55.45-1,1-1s1,.45,1,1v3.97c0,.55-.45,1-1,1Zm0-7.93c-.55,0-1-.45-1-1v-3.97c0-.55.45-1,1-1s1,.45,1,1v3.97c0,.55-.45,1-1,1Zm0-7.93c-.55,0-1-.45-1-1v-3.97c0-.55.45-1,1-1s1,.45,1,1v3.97c0,.55-.45,1-1,1Zm0-7.93c-.55,0-1-.45-1-1v-3.97c0-.55.45-1,1-1s1,.45,1,1v3.97c0,.55-.45,1-1,1Zm0-7.93c-.55,0-1-.45-1-1v-3.97c0-.55.45-1,1-1s1,.45,1,1v3.97c0,.55-.45,1-1,1Zm0-7.93c-.55,0-1-.45-1-1v-3.97c0-.55.45-1,1-1s1,.45,1,1v3.97c0,.55-.45,1-1,1Z"/>
              <path class="cls-3" d="m33,32.46c-.55,0-1-.45-1-1v-2c0-.55.45-1,1-1s1,.45,1,1v2c0,.55-.45,1-1,1Z"/>
            </g>
            <polygon class="cls-9" points="61.67 25.46 29 25.46 29 108.03 61.67 88.03 61.67 25.46"/>
            <polygon class="cls-10" points="30 25.46 29 25.46 29 108.03 30 107.42 30 25.46"/>
            <rect class="cls-5" x="29" y="17.33" width="65.33" height="8.13"/>
            <polygon class="cls-6" points="30 18.33 94.33 18.33 94.33 17.33 29 17.33 29 25.46 30 25.46 30 18.33"/>
            <rect class="cls-7" x="30" y="25.46" width="64.33" height="3.39"/>
          </g>
        </g>
      </g>
    </g>
  </g>
</svg>