<?xml version="1.0" encoding="UTF-8"?>
<svg xmlns="http://www.w3.org/2000/svg" xmlns:xlink="http://www.w3.org/1999/xlink" viewBox="0 0 407.54 418.33">
  <defs>
    <style>
      .cls-1, .cls-2, .cls-3, .cls-4, .cls-5, .cls-6 {
        fill: none;
      }

      .cls-2 {
        stroke-width: 7.33px;
      }

      .cls-2, .cls-3, .cls-4, .cls-5, .cls-6 {
        stroke-miterlimit: 10;
      }

      .cls-2, .cls-3, .cls-5 {
        stroke: #fff;
      }

      .cls-7, .cls-8 {
        fill: #00143a;
      }

      .cls-9 {
        fill: #f2957e;
      }

      .cls-10 {
        fill: #f6ba99;
      }

      .cls-11 {
        fill: #fff;
      }

      .cls-12 {
        fill: #b7c9ce;
      }

      .cls-13 {
        fill: #a84e59;
      }

      .cls-14 {
        fill: url(#Degradado_sin_nombre_101);
      }

      .cls-15 {
        fill: url(#Degradado_sin_nombre_255);
      }

      .cls-16 {
        fill: url(#Degradado_sin_nombre_228);
      }

      .cls-17 {
        fill: url(#Degradado_sin_nombre_780);
      }

      .cls-8 {
        opacity: .15;
      }

      .cls-3 {
        stroke-width: 5.24px;
      }

      .cls-18 {
        fill: url(#Degradado_sin_nombre_86);
      }

      .cls-19 {
        fill: url(#Degradado_sin_nombre_84);
      }

      .cls-20 {
        fill: url(#Degradado_sin_nombre_51);
      }

      .cls-21 {
        fill: url(#Degradado_sin_nombre_31);
      }

      .cls-22 {
        fill: url(#Degradado_sin_nombre_24);
      }

      .cls-23 {
        fill: url(#Degradado_sin_nombre_11);
      }

      .cls-4 {
        stroke: #00143a;
      }

      .cls-4, .cls-5 {
        stroke-width: .62px;
      }

      .cls-24 {
        fill: url(#Degradado_sin_nombre_228-3);
      }

      .cls-25 {
        fill: url(#Degradado_sin_nombre_228-4);
      }

      .cls-26 {
        fill: url(#Degradado_sin_nombre_228-2);
      }

      .cls-27 {
        fill: url(#Degradado_sin_nombre_255-2);
      }

      .cls-28 {
        fill: url(#Degradado_sin_nombre_255-5);
      }

      .cls-29 {
        fill: url(#Degradado_sin_nombre_255-4);
      }

      .cls-30 {
        fill: url(#Degradado_sin_nombre_255-3);
      }

      .cls-31 {
        fill: url(#Degradado_sin_nombre_101-7);
      }

      .cls-32 {
        fill: url(#Degradado_sin_nombre_101-5);
      }

      .cls-33 {
        fill: url(#Degradado_sin_nombre_101-6);
      }

      .cls-34 {
        fill: url(#Degradado_sin_nombre_101-4);
      }

      .cls-35 {
        fill: url(#Degradado_sin_nombre_101-3);
      }

      .cls-36 {
        fill: url(#Degradado_sin_nombre_101-2);
      }

      .cls-37 {
        fill: url(#Degradado_sin_nombre_51-28);
      }

      .cls-38 {
        fill: url(#Degradado_sin_nombre_51-27);
      }

      .cls-39 {
        fill: url(#Degradado_sin_nombre_51-25);
      }

      .cls-40 {
        fill: url(#Degradado_sin_nombre_51-26);
      }

      .cls-41 {
        fill: url(#Degradado_sin_nombre_51-23);
      }

      .cls-42 {
        fill: url(#Degradado_sin_nombre_51-20);
      }

      .cls-43 {
        fill: url(#Degradado_sin_nombre_51-21);
      }

      .cls-44 {
        fill: url(#Degradado_sin_nombre_51-22);
      }

      .cls-45 {
        fill: url(#Degradado_sin_nombre_51-24);
      }

      .cls-46 {
        fill: url(#Degradado_sin_nombre_51-19);
      }

      .cls-47 {
        fill: url(#Degradado_sin_nombre_51-10);
      }

      .cls-48 {
        fill: url(#Degradado_sin_nombre_51-14);
      }

      .cls-49 {
        fill: url(#Degradado_sin_nombre_51-13);
      }

      .cls-50 {
        fill: url(#Degradado_sin_nombre_51-12);
      }

      .cls-51 {
        fill: url(#Degradado_sin_nombre_51-11);
      }

      .cls-52 {
        fill: url(#Degradado_sin_nombre_51-18);
      }

      .cls-53 {
        fill: url(#Degradado_sin_nombre_51-17);
      }

      .cls-54 {
        fill: url(#Degradado_sin_nombre_51-16);
      }

      .cls-55 {
        fill: url(#Degradado_sin_nombre_51-15);
      }

      .cls-56 {
        isolation: isolate;
      }

      .cls-57 {
        fill: url(#Degradado_sin_nombre_51-3);
      }

      .cls-58 {
        fill: url(#Degradado_sin_nombre_51-7);
      }

      .cls-59 {
        fill: url(#Degradado_sin_nombre_51-6);
      }

      .cls-60 {
        fill: url(#Degradado_sin_nombre_51-5);
      }

      .cls-61 {
        fill: url(#Degradado_sin_nombre_51-4);
      }

      .cls-62 {
        fill: url(#Degradado_sin_nombre_51-9);
      }

      .cls-63 {
        fill: url(#Degradado_sin_nombre_51-8);
      }

      .cls-64 {
        fill: url(#Degradado_sin_nombre_51-2);
      }

      .cls-65 {
        fill: url(#Degradado_sin_nombre_11-3);
      }

      .cls-66 {
        fill: url(#Degradado_sin_nombre_11-2);
      }

      .cls-67 {
        fill: url(#Degradado_sin_nombre_31-4);
      }

      .cls-68 {
        fill: url(#Degradado_sin_nombre_31-3);
      }

      .cls-69 {
        fill: url(#Degradado_sin_nombre_31-5);
      }

      .cls-70 {
        fill: url(#Degradado_sin_nombre_31-6);
      }

      .cls-71 {
        fill: url(#Degradado_sin_nombre_31-2);
      }

      .cls-72 {
        fill: url(#Degradado_sin_nombre_24-5);
      }

      .cls-73 {
        fill: url(#Degradado_sin_nombre_24-4);
      }

      .cls-74 {
        fill: url(#Degradado_sin_nombre_24-3);
      }

      .cls-75 {
        fill: url(#Degradado_sin_nombre_24-2);
      }

      .cls-76 {
        fill: url(#Degradado_sin_nombre_86-2);
      }

      .cls-77 {
        fill: url(#Degradado_sin_nombre_86-3);
      }

      .cls-78 {
        fill: url(#Degradado_sin_nombre_84-3);
      }

      .cls-79 {
        fill: url(#Degradado_sin_nombre_84-4);
      }

      .cls-80 {
        fill: url(#Degradado_sin_nombre_84-2);
      }

      .cls-81 {
        fill: #fcfcfc;
        mix-blend-mode: overlay;
        opacity: .21;
      }

      .cls-6 {
        stroke: #f6ba99;
        stroke-width: 11.21px;
      }
    </style>
    <radialGradient id="Degradado_sin_nombre_780" data-name="Degradado sin nombre 780" cx="203.77" cy="193.5" fx="203.77" fy="193.5" r="209.46" gradientTransform="translate(0 16.5) scale(1 .77)" gradientUnits="userSpaceOnUse">
      <stop offset=".45" stop-color="#9ce1ff"/>
      <stop offset=".55" stop-color="#94dafe"/>
      <stop offset=".68" stop-color="#81c7fd"/>
      <stop offset=".84" stop-color="#60a8fc"/>
      <stop offset="1" stop-color="#3b85fb"/>
    </radialGradient>
    <linearGradient id="Degradado_sin_nombre_228" data-name="Degradado sin nombre 228" x1="119.53" y1="362.75" x2="142.93" y2="362.75" gradientUnits="userSpaceOnUse">
      <stop offset="0" stop-color="#cbc755"/>
      <stop offset="1" stop-color="#629725"/>
    </linearGradient>
    <linearGradient id="Degradado_sin_nombre_228-2" data-name="Degradado sin nombre 228" x1="100.6" y1="348.76" x2="119.19" y2="348.76" xlink:href="#Degradado_sin_nombre_228"/>
    <linearGradient id="Degradado_sin_nombre_255" data-name="Degradado sin nombre 255" x1="112.81" y1="350.27" x2="131.21" y2="350.27" gradientUnits="userSpaceOnUse">
      <stop offset="0" stop-color="#19507e"/>
      <stop offset=".17" stop-color="#1e6181"/>
      <stop offset=".73" stop-color="#2f968d"/>
      <stop offset="1" stop-color="#36ab92"/>
    </linearGradient>
    <linearGradient id="Degradado_sin_nombre_255-2" data-name="Degradado sin nombre 255" x1="93.59" y1="370.71" x2="117.81" y2="370.71" xlink:href="#Degradado_sin_nombre_255"/>
    <linearGradient id="Degradado_sin_nombre_51" data-name="Degradado sin nombre 51" x1="90.97" y1="394.68" x2="140.04" y2="394.68" gradientUnits="userSpaceOnUse">
      <stop offset=".2" stop-color="#ffd584"/>
      <stop offset=".92" stop-color="#fcee21"/>
    </linearGradient>
    <linearGradient id="Degradado_sin_nombre_228-3" data-name="Degradado sin nombre 228" x1="295.32" y1="327.66" x2="310.58" y2="327.66" gradientTransform="translate(-19.9 19.55) rotate(-3.61)" xlink:href="#Degradado_sin_nombre_228"/>
    <linearGradient id="Degradado_sin_nombre_228-4" data-name="Degradado sin nombre 228" x1="284.79" y1="331.47" x2="298.21" y2="331.47" gradientTransform="translate(-19.9 19.55) rotate(-3.61)" xlink:href="#Degradado_sin_nombre_228"/>
    <linearGradient id="Degradado_sin_nombre_255-3" data-name="Degradado sin nombre 255" x1="289.83" y1="323.35" x2="302.5" y2="323.35" gradientTransform="translate(-19.9 19.55) rotate(-3.61)" xlink:href="#Degradado_sin_nombre_255"/>
    <linearGradient id="Degradado_sin_nombre_255-4" data-name="Degradado sin nombre 255" x1="294.43" y1="339.21" x2="318.59" y2="339.21" gradientTransform="translate(-19.9 19.55) rotate(-3.61)" xlink:href="#Degradado_sin_nombre_255"/>
    <linearGradient id="Degradado_sin_nombre_255-5" data-name="Degradado sin nombre 255" x1="278.82" y1="336.05" x2="290.75" y2="336.05" gradientTransform="translate(-19.9 19.55) rotate(-3.61)" xlink:href="#Degradado_sin_nombre_255"/>
    <linearGradient id="Degradado_sin_nombre_51-2" data-name="Degradado sin nombre 51" x1="279.77" y1="374.73" x2="311.15" y2="374.73" xlink:href="#Degradado_sin_nombre_51"/>
    <linearGradient id="Degradado_sin_nombre_86" data-name="Degradado sin nombre 86" x1="34.18" y1="412.75" x2="377.09" y2="412.75" gradientUnits="userSpaceOnUse">
      <stop offset=".28" stop-color="#b4cce9"/>
      <stop offset=".92" stop-color="#8598c1"/>
    </linearGradient>
    <linearGradient id="Degradado_sin_nombre_31" data-name="Degradado sin nombre 31" x1="25.53" y1="145.91" x2="378.74" y2="145.91" gradientUnits="userSpaceOnUse">
      <stop offset="0" stop-color="#214a81"/>
      <stop offset="1" stop-color="#55007e"/>
    </linearGradient>
    <linearGradient id="Degradado_sin_nombre_31-2" data-name="Degradado sin nombre 31" x1="70.36" y1="83.73" x2="26.36" y2="25.59" xlink:href="#Degradado_sin_nombre_31"/>
    <linearGradient id="Degradado_sin_nombre_51-3" data-name="Degradado sin nombre 51" x1="322.05" y1="91.08" x2="351.53" y2="91.08" xlink:href="#Degradado_sin_nombre_51"/>
    <linearGradient id="Degradado_sin_nombre_31-3" data-name="Degradado sin nombre 31" x1="274.05" y1="228.73" x2="337.64" y2="228.73" xlink:href="#Degradado_sin_nombre_31"/>
    <linearGradient id="Degradado_sin_nombre_51-4" data-name="Degradado sin nombre 51" x1="270.72" y1="247.11" x2="334.31" y2="247.11" xlink:href="#Degradado_sin_nombre_51"/>
    <linearGradient id="Degradado_sin_nombre_24" data-name="Degradado sin nombre 24" x1="267.39" y1="239.86" x2="330.98" y2="239.86" gradientUnits="userSpaceOnUse">
      <stop offset="0" stop-color="#fc9981"/>
      <stop offset="1" stop-color="#f8007e"/>
    </linearGradient>
    <linearGradient id="Degradado_sin_nombre_86-2" data-name="Degradado sin nombre 86" x1="265.59" y1="217.21" x2="285.85" y2="208.83" xlink:href="#Degradado_sin_nombre_86"/>
    <linearGradient id="Degradado_sin_nombre_86-3" data-name="Degradado sin nombre 86" x1="293.66" y1="227.48" x2="291.56" y2="188.37" xlink:href="#Degradado_sin_nombre_86"/>
    <linearGradient id="Degradado_sin_nombre_31-4" data-name="Degradado sin nombre 31" x1="78.44" y1="326.42" x2="201.68" y2="326.42" xlink:href="#Degradado_sin_nombre_31"/>
    <linearGradient id="Degradado_sin_nombre_51-5" data-name="Degradado sin nombre 51" x1="188.25" y1="259.15" x2="193.91" y2="259.15" gradientTransform="translate(-79.69 82.28) rotate(-19.77)" xlink:href="#Degradado_sin_nombre_51"/>
    <linearGradient id="Degradado_sin_nombre_51-6" data-name="Degradado sin nombre 51" x1="163.84" y1="275.24" x2="169.49" y2="275.24" gradientTransform="translate(-79.69 82.28) rotate(-19.77)" xlink:href="#Degradado_sin_nombre_51"/>
    <linearGradient id="Degradado_sin_nombre_51-7" data-name="Degradado sin nombre 51" x1="142.29" y1="290.18" x2="147.95" y2="290.18" gradientTransform="translate(-79.69 82.28) rotate(-19.77)" xlink:href="#Degradado_sin_nombre_51"/>
    <linearGradient id="Degradado_sin_nombre_51-8" data-name="Degradado sin nombre 51" x1="132.07" y1="327.71" x2="137.72" y2="327.71" gradientTransform="translate(-79.69 82.28) rotate(-19.77)" xlink:href="#Degradado_sin_nombre_51"/>
    <linearGradient id="Degradado_sin_nombre_51-9" data-name="Degradado sin nombre 51" x1="112.65" y1="366.07" x2="118.3" y2="366.07" gradientTransform="translate(-79.69 82.28) rotate(-19.77)" xlink:href="#Degradado_sin_nombre_51"/>
    <linearGradient id="Degradado_sin_nombre_51-10" data-name="Degradado sin nombre 51" x1="72.96" y1="359.63" x2="78.61" y2="359.63" gradientTransform="translate(-79.69 82.28) rotate(-19.77)" xlink:href="#Degradado_sin_nombre_51"/>
    <linearGradient id="Degradado_sin_nombre_11" data-name="Degradado sin nombre 11" x1="210.28" y1="414.29" x2="195.95" y2="287.51" gradientUnits="userSpaceOnUse">
      <stop offset="0" stop-color="#092a4f"/>
      <stop offset="1" stop-color="#3c125b"/>
    </linearGradient>
    <linearGradient id="Degradado_sin_nombre_84" data-name="Degradado sin nombre 84" x1="120.59" y1="159.81" x2="185.19" y2="159.81" gradientUnits="userSpaceOnUse">
      <stop offset="0" stop-color="#fff"/>
      <stop offset=".37" stop-color="#fcfdfe"/>
      <stop offset=".57" stop-color="#f4f9fb"/>
      <stop offset=".72" stop-color="#e7f1f6"/>
      <stop offset=".86" stop-color="#d4e6ef"/>
      <stop offset=".98" stop-color="#bbd8e6"/>
      <stop offset="1" stop-color="#b6d5e4"/>
    </linearGradient>
    <linearGradient id="Degradado_sin_nombre_84-2" data-name="Degradado sin nombre 84" x1="149.82" y1="395.68" x2="181.75" y2="395.68" xlink:href="#Degradado_sin_nombre_84"/>
    <linearGradient id="Degradado_sin_nombre_24-2" data-name="Degradado sin nombre 24" x1="152.23" y1="323.6" x2="220.14" y2="323.6" xlink:href="#Degradado_sin_nombre_24"/>
    <linearGradient id="Degradado_sin_nombre_24-3" data-name="Degradado sin nombre 24" x1="191.89" y1="246.41" x2="192.59" y2="203.81" xlink:href="#Degradado_sin_nombre_24"/>
    <linearGradient id="Degradado_sin_nombre_24-4" data-name="Degradado sin nombre 24" x1="151.46" y1="208.7" x2="191.7" y2="208.7" xlink:href="#Degradado_sin_nombre_24"/>
    <linearGradient id="Degradado_sin_nombre_51-11" data-name="Degradado sin nombre 51" x1="173.41" y1="258.42" x2="258.61" y2="258.42" xlink:href="#Degradado_sin_nombre_51"/>
    <linearGradient id="Degradado_sin_nombre_101" data-name="Degradado sin nombre 101" x1="233.54" y1="364.98" x2="263.23" y2="364.98" gradientTransform="translate(-1.81 1.23) rotate(-.36)" gradientUnits="userSpaceOnUse">
      <stop offset=".15" stop-color="#e29a9a"/>
      <stop offset=".92" stop-color="#d97a73"/>
    </linearGradient>
    <linearGradient id="Degradado_sin_nombre_101-2" data-name="Degradado sin nombre 101" x1="165.2" y1="367.2" x2="195.77" y2="367.2" xlink:href="#Degradado_sin_nombre_101"/>
    <linearGradient id="Degradado_sin_nombre_101-3" data-name="Degradado sin nombre 101" x1="209.15" y1="364.86" x2="218.38" y2="364.86" xlink:href="#Degradado_sin_nombre_101"/>
    <linearGradient id="Degradado_sin_nombre_101-4" data-name="Degradado sin nombre 101" x1="179.9" y1="359.01" x2="245.71" y2="359.01" xlink:href="#Degradado_sin_nombre_101"/>
    <linearGradient id="Degradado_sin_nombre_24-5" data-name="Degradado sin nombre 24" x1="190.14" y1="324.11" x2="257.8" y2="324.11" xlink:href="#Degradado_sin_nombre_24"/>
    <linearGradient id="Degradado_sin_nombre_51-12" data-name="Degradado sin nombre 51" x1="152.72" y1="239.48" x2="229.35" y2="239.48" xlink:href="#Degradado_sin_nombre_51"/>
    <linearGradient id="Degradado_sin_nombre_31-5" data-name="Degradado sin nombre 31" x1="40.16" y1="223" x2="143.21" y2="223" xlink:href="#Degradado_sin_nombre_31"/>
    <linearGradient id="Degradado_sin_nombre_51-13" data-name="Degradado sin nombre 51" x1="141.6" y1="205.24" x2="175.79" y2="205.24" xlink:href="#Degradado_sin_nombre_51"/>
    <linearGradient id="Degradado_sin_nombre_11-2" data-name="Degradado sin nombre 11" x1="143.65" y1="205.5" x2="173.03" y2="205.5" xlink:href="#Degradado_sin_nombre_11"/>
    <linearGradient id="Degradado_sin_nombre_11-3" data-name="Degradado sin nombre 11" x1="158.08" y1="198.73" x2="168.86" y2="198.73" gradientTransform="translate(95.46 -48.8) rotate(20.51)" xlink:href="#Degradado_sin_nombre_11"/>
    <linearGradient id="Degradado_sin_nombre_84-3" data-name="Degradado sin nombre 84" x1="84.45" y1="216.94" x2="99.4" y2="216.94" gradientTransform="translate(-93.14 59.19) rotate(-22.79)" xlink:href="#Degradado_sin_nombre_84"/>
    <linearGradient id="Degradado_sin_nombre_84-4" data-name="Degradado sin nombre 84" x1="186.5" y1="395.16" x2="220.32" y2="395.16" xlink:href="#Degradado_sin_nombre_84"/>
    <linearGradient id="Degradado_sin_nombre_31-6" data-name="Degradado sin nombre 31" x1="182.15" y1="318.91" x2="356" y2="318.91" xlink:href="#Degradado_sin_nombre_31"/>
    <linearGradient id="Degradado_sin_nombre_51-14" data-name="Degradado sin nombre 51" x1="208.16" y1="234.09" x2="213.81" y2="234.09" gradientTransform="translate(-79.69 82.28) rotate(-19.77)" xlink:href="#Degradado_sin_nombre_51"/>
    <linearGradient id="Degradado_sin_nombre_51-15" data-name="Degradado sin nombre 51" x1="236.81" y1="242.73" x2="242.46" y2="242.73" gradientTransform="translate(-79.69 82.28) rotate(-19.77)" xlink:href="#Degradado_sin_nombre_51"/>
    <linearGradient id="Degradado_sin_nombre_51-16" data-name="Degradado sin nombre 51" x1="221.26" y1="253.33" x2="226.91" y2="253.33" gradientTransform="translate(-79.69 82.28) rotate(-19.77)" xlink:href="#Degradado_sin_nombre_51"/>
    <linearGradient id="Degradado_sin_nombre_51-17" data-name="Degradado sin nombre 51" x1="248" y1="269.59" x2="253.66" y2="269.59" gradientTransform="translate(-79.69 82.28) rotate(-19.77)" xlink:href="#Degradado_sin_nombre_51"/>
    <linearGradient id="Degradado_sin_nombre_51-18" data-name="Degradado sin nombre 51" x1="221.11" y1="312.05" x2="226.77" y2="312.05" gradientTransform="translate(-79.69 82.28) rotate(-19.77)" xlink:href="#Degradado_sin_nombre_51"/>
    <linearGradient id="Degradado_sin_nombre_51-19" data-name="Degradado sin nombre 51" x1="251.81" y1="305.17" x2="257.47" y2="305.17" gradientTransform="translate(-79.69 82.28) rotate(-19.77)" xlink:href="#Degradado_sin_nombre_51"/>
    <linearGradient id="Degradado_sin_nombre_51-20" data-name="Degradado sin nombre 51" x1="194.85" y1="376.41" x2="200.5" y2="376.41" gradientTransform="translate(-79.69 82.28) rotate(-19.77)" xlink:href="#Degradado_sin_nombre_51"/>
    <linearGradient id="Degradado_sin_nombre_51-21" data-name="Degradado sin nombre 51" x1="223.13" y1="367.71" x2="228.79" y2="367.71" gradientTransform="translate(-79.69 82.28) rotate(-19.77)" xlink:href="#Degradado_sin_nombre_51"/>
    <linearGradient id="Degradado_sin_nombre_51-22" data-name="Degradado sin nombre 51" x1="229.16" y1="427.12" x2="234.81" y2="427.12" gradientTransform="translate(-79.69 82.28) rotate(-19.77)" xlink:href="#Degradado_sin_nombre_51"/>
    <linearGradient id="Degradado_sin_nombre_51-23" data-name="Degradado sin nombre 51" x1="226.8" y1="401.44" x2="232.46" y2="401.44" gradientTransform="translate(-79.69 82.28) rotate(-19.77)" xlink:href="#Degradado_sin_nombre_51"/>
    <linearGradient id="Degradado_sin_nombre_51-24" data-name="Degradado sin nombre 51" x1="197.69" y1="405.6" x2="203.34" y2="405.6" gradientTransform="translate(-79.69 82.28) rotate(-19.77)" xlink:href="#Degradado_sin_nombre_51"/>
    <linearGradient id="Degradado_sin_nombre_51-25" data-name="Degradado sin nombre 51" x1="273.12" y1="438.99" x2="278.78" y2="438.99" gradientTransform="translate(-79.69 82.28) rotate(-19.77)" xlink:href="#Degradado_sin_nombre_51"/>
    <linearGradient id="Degradado_sin_nombre_51-26" data-name="Degradado sin nombre 51" x1="212.69" y1="342.44" x2="218.34" y2="342.44" gradientTransform="translate(-79.69 82.28) rotate(-19.77)" xlink:href="#Degradado_sin_nombre_51"/>
    <linearGradient id="Degradado_sin_nombre_51-27" data-name="Degradado sin nombre 51" x1="243.05" y1="341.77" x2="248.71" y2="341.77" gradientTransform="translate(-79.69 82.28) rotate(-19.77)" xlink:href="#Degradado_sin_nombre_51"/>
    <linearGradient id="Degradado_sin_nombre_51-28" data-name="Degradado sin nombre 51" x1="237.48" y1="289.12" x2="243.14" y2="289.12" gradientTransform="translate(-79.69 82.28) rotate(-19.77)" xlink:href="#Degradado_sin_nombre_51"/>
    <linearGradient id="Degradado_sin_nombre_101-5" data-name="Degradado sin nombre 101" x1="306.49" y1="336.37" x2="360.32" y2="336.37" gradientTransform="matrix(1,0,0,1,0,0)" xlink:href="#Degradado_sin_nombre_101"/>
    <linearGradient id="Degradado_sin_nombre_101-6" data-name="Degradado sin nombre 101" x1="58.17" y1="333.1" x2="101.67" y2="333.1" gradientTransform="matrix(1,0,0,1,0,0)" xlink:href="#Degradado_sin_nombre_101"/>
    <linearGradient id="Degradado_sin_nombre_101-7" data-name="Degradado sin nombre 101" x1="49.71" y1="254.49" x2="360.32" y2="254.49" gradientTransform="matrix(1,0,0,1,0,0)" xlink:href="#Degradado_sin_nombre_101"/>
  </defs>
  <g class="cls-56">
    <g id="_레이어_2" data-name="레이어 2">
      <g id="OBJECTS">
        <path class="cls-17" d="m46.95,58.38c-15.05,9.95-29.42,20.98-38.39,34.59s-11.92,30.22-3.82,44.14c10.51,18.07,37.62,29.2,43.37,48.49,4.64,15.55-6.16,31-13.98,45.78-7.82,14.78-11.85,33.77,2.92,45,5.98,4.55,14.26,7.04,20.02,11.76,6.81,5.57,9.21,13.45,14.4,19.97,9.45,11.86,27.62,18.27,45.59,20.07,17.97,1.8,36.15-.31,54.16-1.83,54.77-4.62,110.33-3.68,164.77,2.79,8.92,1.06,19.2,1.98,25.91-2.66,2.73-1.88,4.45-4.47,5.77-7.1,3.81-7.55,4.72-15.95,2.59-23.89-1.27-4.76-3.62-9.43-3.56-14.29.13-10.15,10.37-18.24,18.86-26.02,8.5-7.77,16.14-18.44,10.46-27.6-3.96-6.4-13.21-9.78-18.82-15.41-9.42-9.45-6.66-23.2.35-33.82,7.01-10.61,17.66-19.67,23.98-30.54,6.71-11.53,8.1-25.02,2.56-36.9-5.54-11.89-18.31-21.88-34.1-25.42-13.15-2.95-27.61-1.5-40.45-5.18-2.63-.76-5.22-1.75-7.17-3.3-4.41-3.52-4.6-9.11-2.93-13.82,1.67-4.71,4.86-9.05,6.41-13.79,3.68-11.31-2.86-23.57-13.78-31.68-10.92-8.11-25.59-12.61-40.36-15.35-13.93-2.58-28.93-3.71-42.35.15-20.13,5.79-32.74,21.5-51.99,28.85-15.36,5.87-19.16-.02-25.46-8.58-6.23-8.45-14.62-8.19-25.97-5.08-28.6,7.85-56.27,25.64-79,40.68Z"/>
        <g>
          <path class="cls-16" d="m132.38,347.5c2.94-3.9,7.16-7.24,9.43-3.99,1.34,1.92,1.39,5.62.61,8.89-.78,3.26-2.26,6.17-3.79,8.84-3.72,6.49-15.43,29.57-18.55,19.61-3.05-9.74,7.54-27.02,12.3-33.34Z"/>
          <path class="cls-26" d="m100.72,333.52c-.47-4.86.39-10.18,4.26-9.31,2.28.51,4.83,3.2,6.45,6.14,1.63,2.93,2.5,6.08,3.17,9.08,1.64,7.3,9.29,38.62.26,33.39-8.83-5.12-13.38-31.42-14.14-39.29Z"/>
          <path class="cls-15" d="m113.85,359.07c.61-16.15,2.66-33.78,9.26-47.42,1.43-2.96,3.8-5.94,5.3-4.17.41.49.67,1.27.89,2.06,3.32,11.75,1.78,27.36-.59,41.8-1.31,7.98-5.49,40.05-10.96,42.09-7.7,2.87-4.17-27.25-3.9-34.35Z"/>
          <path class="cls-27" d="m109.04,395.81c-7.47-10.93-12.65-24.58-14.79-39.03-.74-4.98-1.1-10.28.28-15.01.32-1.1.8-2.23,1.62-2.68,1.3-.7,2.69.63,3.71,1.91,12.39,15.7,19.11,38.9,17.8,61.52"/>
          <path class="cls-20" d="m93.17,377.35c-1.4,3.09-2.2,6.5-2.2,10.11,0,13.55,10.98,24.53,24.53,24.53s24.53-10.98,24.53-24.53c0-3.61-.8-7.03-2.2-10.11h-44.67Z"/>
        </g>
        <g>
          <path class="cls-24" d="m307.83,292.57c.78,7.15,1.45,14.31,1.99,21.48.43,5.65.78,11.33.13,16.97-.47,4.03-1.44,8.01-2.58,11.95-1.68,5.83-3.43,12.06-6.26,17.56-1.41,2.75-2.41,2.24-3.28-.6-.88-2.84-.67-6.38-.76-9.32-.38-12.53,1.71-25.05,4.76-37.29,1.74-6.97,3.81-13.87,5.99-20.75Z"/>
          <path class="cls-25" d="m284.61,301.51c4.03,10.9,9.7,21.13,12.82,32.35,1.58,5.67,2.4,11.66,2.02,17.56-.18,2.83-1.37,15.24-5.65,10.11-1.7-2.04-2.51-6.58-3.33-9.13-1-3.1-1.88-6.24-2.65-9.41-1.53-6.34-2.59-12.8-3.16-19.31-.65-7.37-.67-14.81-.04-22.17Z"/>
          <path class="cls-30" d="m290.46,334.75c-.26-18.07,5.93-35.46,8.05-53.37.18,18.03,5,35.91,3.8,53.88-.36,5.48-1.29,10.9-2.53,16.22-.46,1.98-2.69,14.17-4.51,14.28-3.35.21-4.76-27.88-4.81-31.02Z"/>
          <path class="cls-29" d="m302.09,338.73c3.85-9.9,9.53-19.36,15.52-28.66.91,10.26-2.57,20.57-6.95,30.42-2.02,4.54-4.24,9.03-6.34,13.55-1.89,4.06-2.95,9.88-5.84,13.39-3.23-2.1-1-10.67-.53-13.69.79-5.07,2.24-10.09,4.15-15.01Z"/>
          <path class="cls-28" d="m286.78,354.3c-6.4-13.65-9.24-28.68-8.21-43.55,1.74,3.83,3.49,7.65,5.23,11.48,1.98,4.34,3.95,8.68,5.36,13.2,2.45,7.85,4.97,19.99,1.72,27.95-1.42-2.98-2.7-6.07-4.1-9.08Z"/>
          <path class="cls-64" d="m284.33,397.62c.09.4.18.83.47,1.13.41.43,1.06.47,1.65.47,6.22.08,12.44-.24,18.61-.95.76-.09,1.57-.2,2.15-.71.56-.49.79-1.26.98-1.98,2.07-8.05,2.73-36.01,2.95-44.32.03-.97-24.52-1.41-27.66-.66-5.71,1.38-3.4,5.6-2.39,10.3,1.23,5.72,2.02,31,3.24,36.72Z"/>
        </g>
        <ellipse class="cls-18" cx="205.63" cy="412.75" rx="171.45" ry="5.59"/>
        <g>
          <g id="_27" data-name="27">
            <g>
              <polygon class="cls-21" points="105.46 52.49 25.53 102.1 25.53 239.33 378.74 239.33 378.74 52.49 105.46 52.49"/>
              <polygon class="cls-71" points="25.53 52.49 25.53 102.1 105.46 52.49 25.53 52.49"/>
              <rect class="cls-7" x="25.53" y="138.95" width="50.12" height="99.81"/>
              <rect class="cls-7" x="79.37" y="148" width="22.3" height="91.34"/>
              <rect class="cls-7" x="25.53" y="164.75" width="58.91" height="74.58"/>
              <rect class="cls-7" x="140.24" y="173.7" width="58.91" height="74.58"/>
              <rect class="cls-7" x="84.44" y="183.09" width="28.38" height="56.25"/>
              <rect class="cls-7" x="110.27" y="209.5" width="40.35" height="29.84"/>
              <polygon class="cls-81" points="267.79 51.33 25.53 181.07 25.53 204.12 298.96 54.06 267.79 51.33"/>
              <polygon class="cls-81" points="201.91 108.53 201.91 124.11 25.53 225.99 25.53 210.41 201.91 108.53"/>
              <polygon class="cls-81" points="377.38 39.28 28.94 239.33 79.97 239.33 379.1 61.96 377.38 39.28"/>
              <polygon class="cls-81" points="150.2 52.49 25.53 126.85 25.53 146.17 183.72 52.49 150.2 52.49"/>
            </g>
          </g>
          <g id="_27-2" data-name="27">
            <g>
              <rect class="cls-7" x="184.49" y="146.32" width="50.12" height="99.81"/>
              <rect class="cls-7" x="289.14" y="162.21" width="22.3" height="68.73"/>
              <rect class="cls-7" x="198.63" y="164.75" width="58.91" height="74.58"/>
              <rect class="cls-7" x="320.15" y="138.95" width="50.12" height="99.81"/>
              <rect class="cls-7" x="320.15" y="164.75" width="58.91" height="74.58"/>
              <rect class="cls-7" x="257.54" y="183.09" width="28.38" height="56.25"/>
              <rect class="cls-7" x="283.37" y="209.5" width="40.35" height="29.84"/>
              <polygon class="cls-81" points="375.01 79.18 198.63 181.07 198.63 204.12 375.01 102.24 375.01 79.18"/>
              <polygon class="cls-81" points="375.01 108.53 375.01 124.11 198.63 225.99 198.63 210.41 375.01 108.53"/>
              <polygon class="cls-81" points="375.01 140.87 202.04 239.33 253.07 239.33 376.73 163.56 375.01 140.87"/>
            </g>
          </g>
          <polygon class="cls-11" points="274.54 80.39 275.43 82.15 277.39 82.41 275.99 83.81 276.35 85.75 274.59 84.85 272.86 85.79 273.17 83.84 271.73 82.48 273.68 82.17 274.54 80.39"/>
          <polygon class="cls-11" points="275.97 144.88 276.86 146.64 278.82 146.9 277.42 148.29 277.78 150.23 276.02 149.34 274.29 150.28 274.6 148.33 273.16 146.97 275.11 146.66 275.97 144.88"/>
          <polygon class="cls-11" points="168.42 155.9 169.32 157.66 171.27 157.92 169.88 159.32 170.23 161.26 168.48 160.36 166.74 161.3 167.05 159.35 165.62 157.99 167.57 157.68 168.42 155.9"/>
          <polygon class="cls-11" points="48.95 76.2 49.85 77.96 51.81 78.22 50.41 79.61 50.77 81.56 49.01 80.66 47.27 81.6 47.58 79.65 46.15 78.29 48.1 77.98 48.95 76.2"/>
          <polygon class="cls-11" points="358.87 122.82 359.76 124.58 361.72 124.84 360.32 126.23 360.68 128.18 358.92 127.28 357.19 128.22 357.5 126.27 356.06 124.91 358.01 124.6 358.87 122.82"/>
          <polygon class="cls-11" points="77.97 116.07 78.87 117.83 80.83 118.09 79.43 119.48 79.79 121.43 78.03 120.53 76.29 121.47 76.6 119.52 75.17 118.16 77.12 117.85 77.97 116.07"/>
          <polygon class="cls-11" points="118.62 81.96 119.51 83.72 121.47 83.98 120.07 85.38 120.43 87.32 118.67 86.42 116.94 87.36 117.25 85.41 115.82 84.05 117.77 83.74 118.62 81.96"/>
          <rect class="cls-2" x="24.21" y="52.38" width="354.85" height="185.91"/>
          <line class="cls-3" x1="94.41" y1="52.38" x2="94.41" y2="237.59"/>
          <line class="cls-3" x1="300.26" y1="52.38" x2="300.26" y2="237.59"/>
          <path class="cls-11" d="m174.78,125.76h-5.76v7.43h-14.18v-7.43h-22.48v-9.29l18.39-26.63h14.98l-16.35,24.58h5.88v-6.63h13.75v6.63h5.76v11.33Zm2.04-14.24c0-14.37,8.17-22.66,19.63-22.66s19.63,8.3,19.63,22.66-8.17,22.66-19.63,22.66-19.63-8.3-19.63-22.66Zm24.58,0c0-8.36-2.11-10.96-4.95-10.96s-4.95,2.6-4.95,10.96,2.1,10.96,4.95,10.96,4.95-2.6,4.95-10.96Zm60.31,14.24h-5.76v7.43h-14.18v-7.43h-22.48v-9.29l18.39-26.63h14.98l-16.35,24.58h5.88v-6.63h13.75v6.63h5.76v11.33Z"/>
          <path class="cls-11" d="m177.43,81.21v2.23h-9.29v-12h9.07v2.23h-6.31v2.61h5.57v2.16h-5.57v2.78h6.53Zm9.86,2.23l-2.31-3.34h-2.55v3.34h-2.78v-12h5.19c3.21,0,5.21,1.66,5.21,4.35,0,1.8-.91,3.12-2.47,3.79l2.69,3.86h-2.98Zm-2.61-9.74h-2.26v4.18h2.26c1.7,0,2.55-.79,2.55-2.09s-.86-2.09-2.55-2.09Zm15.21,9.74l-2.31-3.34h-2.55v3.34h-2.78v-12h5.19c3.21,0,5.21,1.66,5.21,4.35,0,1.8-.91,3.12-2.47,3.79l2.69,3.86h-2.98Zm-2.61-9.74h-2.26v4.18h2.26c1.7,0,2.55-.79,2.55-2.09s-.86-2.09-2.55-2.09Zm6.8,3.74c0-3.57,2.78-6.21,6.57-6.21s6.57,2.62,6.57,6.21-2.79,6.21-6.57,6.21-6.57-2.64-6.57-6.21Zm10.32,0c0-2.28-1.61-3.84-3.75-3.84s-3.76,1.56-3.76,3.84,1.61,3.84,3.76,3.84,3.75-1.56,3.75-3.84Zm12.55,6l-2.31-3.34h-2.55v3.34h-2.78v-12h5.2c3.21,0,5.21,1.66,5.21,4.35,0,1.8-.91,3.12-2.47,3.79l2.69,3.86h-2.98Zm-2.61-9.74h-2.26v4.18h2.26c1.7,0,2.55-.79,2.55-2.09s-.86-2.09-2.55-2.09Z"/>
          <path class="cls-57" d="m347.91,99.65c-4.62,0-8.37-3.75-8.37-8.37s3.75-8.37,8.37-8.37c1.3,0,2.52.3,3.62.83-2.63-4.94-7.83-8.31-13.82-8.31-8.65,0-15.66,7.01-15.66,15.66s7.01,15.66,15.66,15.66c5.77,0,10.79-3.13,13.51-7.77-1.02.44-2.13.68-3.31.68Z"/>
          <rect class="cls-12" x="18.09" y="241.16" width="365.98" height="4.28"/>
          <rect class="cls-11" x="17.16" y="245.57" width="366.9" height="7.94"/>
        </g>
        <g>
          <g>
            <rect class="cls-68" x="274.05" y="221.95" width="63.59" height="13.58"/>
            <rect class="cls-61" x="270.72" y="244.35" width="63.59" height="5.53"/>
            <rect class="cls-22" x="267.39" y="235.77" width="63.59" height="8.18"/>
            <g>
              <path class="cls-76" d="m283.35,218.53h-.32c-4.59,0-8.32-3.73-8.32-8.32s3.73-8.32,8.32-8.32h.32c.81,0,1.47.66,1.47,1.47v13.7c0,.81-.66,1.47-1.47,1.47Zm-1.47-13.58c-2.42.53-4.23,2.69-4.23,5.26s1.81,4.73,4.23,5.26v-10.51Z"/>
              <rect class="cls-77" x="283.35" y="197.99" width="18.71" height="23.49"/>
            </g>
          </g>
          <g>
            <path class="cls-67" d="m169.16,249.71c2.74,3,5.99,5.6,8.06,9.1,1.24,2.1,2.01,4.71,1.12,6.98-.5,1.29-1.48,2.33-2.54,3.23-6.24,5.28-15.34,6.16-21.54,11.48-6.17,5.3-8.26,14.06-8,22.19.26,8.13,2.5,16.06,3.43,24.15,1.03,8.96-1.03,15.36-3.94,23.56-2.37,6.7-6.98,8.98-11.4,14.36-2.26,2.75-3.53,6.16-5.23,9.29-1.7,3.13-4.1,6.17-7.5,7.22-1.16.36-2.38.47-3.52.86-6.75,2.32-7.48,12.77-14.07,15.51-2.82,1.17-6.01.6-9.06.51-4.53-.13-13.68.79-16.07,5.42-1.4,2.71.55,6.18,3.29,7.52,3.51,1.71,7.83.81,11.59.97,5.39.22,10.78.45,16.17.67,2.96.12,6.05.22,8.74-1.03,2.8-1.31,27.7-3.33,33.35-1.61,4.92,1.49,11.84.11,16.58-1.55,1.55-.54,3.14-1.26,4.05-2.62.74-1.1.93-2.47,1.01-3.79.89-15.12-10.45-28.81-10.12-43.95.13-6.27,2.27-12.29,3.55-18.43,1.89-9.11,1.89-18.5,1.46-27.79-.28-5.95-.37-12.81,4.12-16.73,3.43-2.99,8.4-3.18,12.75-4.53,7.74-2.41,13.96-9.17,15.72-17.08,1.76-7.91-1.01-16.67-7-22.14-5.07-4.63-11.88-6.75-18.45-8.75-1.92-.58-9.08-4.03-10.74-2.11-1.91,2.21,2.93,7.5,4.19,9.08Z"/>
            <path class="cls-5" d="m141.98,409.44c-2.75-.69-9.85-5.69-11.19-8.25-3.22-6.14-4.61-15.82,2.09-20.42,1.87-1.28,4.28-2.03,5.4-4.01.77-1.37.73-3.03,1.03-4.58.3-1.55,1.22-3.22,2.78-3.43"/>
            <polygon class="cls-60" points="186.88 258.97 188.3 260.34 190.23 259.94 189.37 261.72 190.34 263.44 188.38 263.16 187.05 264.62 186.71 262.68 184.91 261.86 186.65 260.93 186.88 258.97"/>
            <polygon class="cls-59" points="169.35 282.37 170.77 283.74 172.7 283.34 171.84 285.12 172.81 286.84 170.85 286.56 169.52 288.02 169.18 286.07 167.38 285.26 169.12 284.33 169.35 282.37"/>
            <polygon class="cls-58" points="154.12 303.71 155.54 305.08 157.48 304.69 156.61 306.46 157.58 308.18 155.63 307.9 154.3 309.36 153.95 307.42 152.16 306.6 153.9 305.67 154.12 303.71"/>
            <polygon class="cls-63" points="157.2 342.48 158.62 343.85 160.55 343.46 159.69 345.23 160.66 346.95 158.71 346.68 157.37 348.13 157.03 346.19 155.23 345.37 156.98 344.44 157.2 342.48"/>
            <polygon class="cls-62" points="151.9 385.16 153.32 386.53 155.26 386.13 154.39 387.91 155.37 389.63 153.41 389.35 152.08 390.81 151.73 388.86 149.94 388.05 151.68 387.12 151.9 385.16"/>
            <polygon class="cls-47" points="112.38 392.52 113.8 393.89 115.73 393.5 114.87 395.27 115.84 396.99 113.88 396.72 112.55 398.17 112.21 396.23 110.41 395.41 112.15 394.48 112.38 392.52"/>
          </g>
          <path class="cls-23" d="m184.88,406.77c3.11.11,6.13,1.02,9.17,1.74,20.97,4.95,43.43.4,62.59-9.47,5.32-2.74,11.15-7.23,10.48-13.18-.33-2.92-2.22-5.38-3.72-7.9-5.03-8.44-6.06-18.6-6.94-28.39-1.62-18.1-3.1-36.22-4.42-54.35-.39-5.37-.78-10.8-2.36-15.95s-4.48-10.07-8.96-13.06c-6.47-4.32-14.95-3.93-22.63-2.67-7.68,1.26-15.55,3.21-23.14,1.47-4.13-.95-8.91-2.85-12.23-.21-1.47,1.17-2.24,2.99-3.12,4.66-3.26,6.13-8.96,10.92-15.57,13.07-3.93,1.28-8.55,1.9-10.97,5.26-1.28,1.78-1.68,4.04-1.93,6.23-1.48,13.03,1.18,26.11,3.07,39.08,1.9,12.97,2.99,26.55-1.42,38.9-2.1,5.89-5.63,11.69-5.23,18.16.35,5.69,4.48,9.89,8.22,13.84,8.46,8.94,18.66,2.39,29.13,2.76Z"/>
          <g>
            <g>
              <g>
                <path class="cls-10" d="m107.6,168.9s3.83,2.99,4.19,4.64c.36,1.65-.24,5.3-.24,5.3l6.13,11.69-10.77,2.67s-11.92-15.46-12.27-16.06c-.35-.61-1.79-5.24-.89-6.29.9-1.04,5.45-4.04,5.45-4.04,0,0,2.88-5.51,3.65-5.62.77-.11,4.23,2.55,4.23,2.55l.53,5.15Z"/>
                <g>
                  <path class="cls-7" d="m101.49,179.85c9.75-17.54,21.64-33.88,35.33-48.55"/>
                  <path class="cls-19" d="m144.87,140.39c1.68,1.75,2.82,4.83.97,6.4-.46.39-1.04.61-1.48,1.02-1.78,1.67.22,4.78,2.57,5.46,2.35.68,4.97.19,7.2,1.18,2.12.94,3.55,3.24,3.46,5.56-.09,2.31-1.71,4.5-3.89,5.26,1.43,3.88,6.71,4.02,10.82,4.42,8.5.83,16.45,5.99,20.67,13.41-6.93-3.69-14.98-5.22-22.78-4.34-5.11.58-10.29,2.15-15.3.98-5.01-1.18-9.49-6.75-7.13-11.32,1.47-2.85,5.28-5.34,3.92-8.25-.72-1.55-2.6-2.09-4.27-2.47-6.35-1.45-12.7-2.9-19.05-4.35,2.16.38,10.39-13.48,12.44-14.89,4.32-2.98,7.47-2.62,11.85,1.94Z"/>
                </g>
                <path class="cls-10" d="m100.87,176.01c1.17.34,2.37.69,3.59.65,1.22-.04,2.5-.52,3.18-1.54.43-.64.59-1.43.67-2.2.21-2.08-.13-4.22-.97-6.14-.13-.29-.28-.59-.54-.77-.23-.16-.51-.2-.78-.22-3.35-.26-6.45,3.22-5.81,6.52"/>
                <path class="cls-6" d="m186.68,230.35c-32.45,2.03-65.21-17.29-79.12-46.67"/>
              </g>
              <g>
                <g>
                  <path class="cls-10" d="m217.33,283.53s-51.47-3.23-57.94,8.33c-6.48,11.56,9.69,107.11,9.69,107.11l10.28.62,2.18-89.34,39.96,1.03-4.16-27.75Z"/>
                  <path class="cls-8" d="m191.41,285.04l.58,25.95h8.11l10.71-25.16s-16.03-2.26-19.4-.8Z"/>
                </g>
                <path class="cls-80" d="m178.91,376.08c-.25,11.02.65,22.06,2.69,32.89.17.9.32,1.94-.24,2.66-.67.86-1.94.83-3.02.89-3.59.2-6.81.16-10.14,1.51-3.33,1.35-7.43,2.01-10.31-.14-1.05-.78-1.83.13-2.88-.65-.89-.67-1.95-1.09-2.84-1.75-1.65-1.23-2.65-3.38-2.26-5.4.39-2.02,2.29-3.72,4.34-3.63,2.17.09,4.3,1.96,6.3,1.1.65-.28,1.15-.8,1.74-1.19,1.76-1.15,4.06-.92,6.14-.64.46-1.7.01-3.5-.44-5.21-.7-2.67-6.31-17.51-4.44-19.18.89-.79,4.79.98,5.89,1.06,3.24.21,6.52-1.12,9.47-2.3Z"/>
                <path class="cls-11" d="m163.56,387.22c1.65-.46,3.36-.69,5.08-.69,3.29,0,6.67.83,9.8-.18.5-.16,1-.38,1.32-.8.35-.45.43-1.05.49-1.62.33-2.91.65-5.81.98-8.72-.18,1.64-13.31,2.27-14.93,2.25-2.44-.02-3.22-.86-4.12,1.39-.85,2.14.6,6.37,1.38,8.36Z"/>
                <path class="cls-75" d="m152.28,364.28c.22,1.79,1.13,3.12,3.93,2.89,2.07-.17,3.86-2.04,3.94-4.11.59,1.35,1.71,2.59,3.16,2.83s3.13-.89,3.04-2.37c.8,1.49,2.14,2.82,3.82,3.06,1.68.23,3.57-1.03,3.54-2.73-.11,1.25.77,2.51,1.97,2.85,1.21.34,2.61-.29,3.17-1.41.3.5,1.02.71,1.54.43,1.96-1.03,1.13-8.77,1.18-10.49l.6-18.22c.28-8.68.57-17.35.85-26.03l17.95,2.27,19.14-30.12s-43.34-9.53-61.64,4.54c-1.46,1.12-2.63,5.08-2.73,6.91-1.08,21.56-1.85,43.17-3.23,64.71-.1,1.49-.45,3.4-.26,4.97Z"/>
                <g>
                  <path class="cls-74" d="m165.95,228.25c-.16.17.03.46.26.49s.44-.11.65-.21c1.62-.85,3.88-.09,4.65,1.57.77,1.66-.12,3.88-1.82,4.56-.54.21-1.12.29-1.68.39-4,.69-9.62,2.44-13.55.72-2.26-.99-3.88-3.55-3.35-5.96.25-1.14.94-2.32.51-3.4-.48-1.21-2.01-1.52-3.24-1.95-3.28-1.16-5.6-4.6-5.45-8.07.15-3.47,2.76-6.7,6.12-7.57-3.46-4.16-3.18-10.94.61-14.81,3.85-3.93,7.1-1.9,11.51-2.64,3.26-.55,6.32-3.35,10.22-2.47,3.37.77,6.12,3.14,8.67,5.47,2.55,2.33,5.19,4.78,8.5,5.78,3.31,1,6.86.4,10.32.43,3.46.03,7.32.96,9.13,3.91,1.42,2.32,1.44,5.67,3.77,7.07,1.72,1.04,3.9.49,5.91.53,8.71.18,12.22,9.2,14.6,15.9,2.21,6.21,8.78,10.64,9.07,17.45.05,1.2-.11,2.52-.94,3.38-.59.61-1.42.91-2.23,1.13-6.95,1.95-14.86-.02-20.08-5-2.95-2.81-5.1-6.5-8.55-8.68-3.34-2.12-7.5-2.54-10.99-4.42-6.65-3.59-9.44-11.51-11.68-18.74"/>
                  <path class="cls-10" d="m191.04,237.7c-1.04-.48-9.34-2.99-8.07-5.43-.55,1.05-1.59,1.77-2.71,2.14s-2.32.43-3.5.41c-5.91-.09-10.43-6.18-14.33-9.99-2.72-2.66-5.41-5.35-8.07-8.06l4.55-14.03s16.93-1.65,16.93-1.65c8.15-.79,11.33,16.39,13.62,18.93,6.42,7.13,24.27,12.48,15.27,20.35-2.14,1.87-5.43.92-8.07-.13-1.77-.7-3.67-1.62-5.62-2.53Z"/>
                  <path class="cls-9" d="m182.61,233.35s3.42-3.46,4.32-9.12c0,0,2.3,5.24-2.94,10.24l-1.38-1.12Z"/>
                  <path class="cls-9" d="m187.28,221.14c.3-2.5.3-5.17-.9-7.39,1.97,2.65,2.79,6.05,2.64,9.36s-1.23,6.51-2.75,9.45c-.49.94-1.06,1.9-1.97,2.44-1.21.72-2.66.42-2.53-.97.08-.83,2.29-2.9,2.76-3.76,1.55-2.8,2.38-5.97,2.75-9.13Z"/>
                  <path class="cls-73" d="m153.56,220.6c3.2-.09,5.41-2.27,6.88-4.88,1.19-2.11,3.68-4.75,2.86-7.38.68.56,1.68.45,2.55.3,1.24-.21,2.48-.43,3.73-.64,2.04-.35,4.45-1.01,5.06-2.98-.38,1.25,5.2,4.92,6.01,5.56,3.03,2.4,5.74,5.46,9,7.49.39.24.86.48,1.3.34.6-.2.77-.97.75-1.61-.13-3.58-2.72-4.97-5.07-7.05-2.76-2.44-5.07-6.03-7.13-9.07-.94-1.39-1.97-2.86-3.52-3.49-1.66-.68-3.54-.26-5.32,0-2.21.33-4.45.39-6.66.77-2.2.38-4.41,1.09-6.11,2.54-1.73,1.47-2.79,3.57-3.8,5.6-1.15,2.32-2.32,4.7-2.59,7.27-.26,2.57.58,5.42,2.73,6.86"/>
                  <path class="cls-10" d="m180.71,206.04c.22-.84.45-1.69,1-2.28.55-.59,1.48-.86,2.49-.44.75.32,1.45.98,1.96,1.69.82,1.15,1.2,2.49,1.02,3.53-.19,1.05-.94,1.79-1.99,1.95"/>
                </g>
                <path class="cls-51" d="m196.22,226.96c8.22-1.01,16.63-2.02,24.73-.29,11.36,2.42,21.17,10.19,27.46,19.95,6.29,9.76,9.3,21.37,10.13,32.95.08,1.18.14,2.4-.26,3.51-.54,1.5-1.83,2.6-3.18,3.45-4.62,2.94-10.24,3.77-15.7,4.2-18.22,1.41-36.74-1.12-53.91-7.36,6.15-4.55,6.76-13.97,3.46-20.88-3.3-6.9-9.53-11.87-15.55-16.59,3.23-4.17,2.49-12.96,5.17-15.91,2.86-3.15,13.5-2.52,17.63-3.03Z"/>
                <g>
                  <g>
                    <g>
                      <polygon class="cls-14" points="233.69 316.88 260.93 412.81 263.97 412.79 242.94 316.5 233.69 316.88"/>
                      <polygon class="cls-36" points="185.53 318.47 165.96 416.26 169.54 416.24 195.92 318.37 185.53 318.47"/>
                      <polygon class="cls-35" points="209.3 316.71 212.99 412.85 217.25 412.83 218.53 317.02 209.3 316.71"/>
                      <polygon class="cls-34" points="184.86 356.47 245.69 354.09 246.14 360.71 180.34 363.76 184.86 356.47"/>
                      <polygon class="cls-8" points="185.53 318.47 184.63 322.8 194.69 322.73 195.92 318.37 185.53 318.47"/>
                      <polygon class="cls-8" points="209.34 317.96 209.52 322.64 218.45 322.59 218.53 317.02 209.34 317.96"/>
                      <polyline class="cls-8" points="210.79 355.45 211.05 362.34 207.18 362.36 205.63 355.66 211.81 355.45"/>
                      <polygon class="cls-8" points="218.02 355.17 218.06 362.01 221 361.87 221.81 355.02 218.02 355.17"/>
                    </g>
                    <polygon class="cls-8" points="233.69 316.88 234.67 320.31 243.76 320.26 242.94 316.5 233.69 316.88"/>
                  </g>
                  <path class="cls-11" d="m180.06,318.47s68.53-.42,73.16-.45c4.63-.03,14.48-12.89-39.4-11.1-50.59,1.69-33.76,11.55-33.76,11.55Z"/>
                </g>
                <path class="cls-10" d="m256.76,283.71s-53.19-6.48-59.66,5.09c-6.48,11.56,10.29,108.93,10.29,108.93l9.66,1.25,2.35-87.8,12.04-.47c14.5.37,26.22-11.73,25.38-26.22l-.05-.78Z"/>
                <line class="cls-1" x1="132.65" y1="241.74" x2="133.32" y2="239.97"/>
                <path class="cls-72" d="m191.41,365.33l28.48.35,1.26-52.18s37.57,2.21,36.63-31.6c0,0-56.28-3.63-60.44,0-11.29,9.85-5.93,82.61-5.93,82.61.25,1.79,1.48,2.88,3.27,3.09,1.79.21,3.65-.92,4.3-2.61.88,1.33,2.23,2.46,3.81,2.61,1.59.15,3.32-.98,3.43-2.56.62,1.05,1.54,2,2.73,2.26,1.19.26,2.62-.43,2.83-1.62.43,1.15,1.51,2.03,2.72,2.21s2.5-.34,3.25-1.31c.46-.6.76-1.38,1.44-1.7-.17-1.23.05-2.51.61-3.62"/>
                <path class="cls-13" d="m219.32,305.97c.21-.06.91,1.89,1.56,4.35.65,2.46.99,4.5.78,4.56-.21.06-.91-1.89-1.56-4.35-.65-2.46-.99-4.5-.78-4.56Z"/>
                <path class="cls-13" d="m221.84,305.96c.21-.03.61,1.99.47,4.51-.13,2.52-.75,4.48-.96,4.43-.22-.05.03-2.03.16-4.48.14-2.44.1-4.44.33-4.47Z"/>
                <path class="cls-6" d="m171.52,243.06c-12.02,1.6-59.39.99-66.61-2.32"/>
                <path class="cls-50" d="m152.72,237c1.12,4.29,2.23,8.58,3.35,12.87.23.89.49,1.82,1.15,2.45.73.69,1.78.87,2.78,1.02,18.94,2.76,38.22,3.11,57.25,1.06.71-.08,1.46-.17,2.01-.62.69-.55.91-1.48,1.08-2.34.93-4.54,4.54-4.82,6.6-8.86,1.25-2.46,1.76-5.22,2.25-7.94.12-.66.24-1.34.07-1.99-.25-.95-1.06-1.63-1.86-2.21-8.95-6.57-20.91-8.83-31.64-5.98-4.03,1.07-43.59,10.47-43.05,12.53Z"/>
                <polygon class="cls-69" points="40.16 197.92 58.55 248.86 143.21 248.82 142.62 246.33 110.47 243.98 95.22 197.13 40.16 197.92"/>
                <g>
                  <path class="cls-49" d="m143.92,218.01c3.9,4.44,9.91,1.76,13.01-3.36,1.55-2.56,2.94-5.39,5.46-7.01,3.49-2.26,8.48-1.72,11.45-4.62,2.28-2.23,2.55-6.11.86-8.81-1.69-2.71-5.03-4.18-8.21-3.94s-6.14,2.02-8.14,4.5c-3.34,4.15-4.85,7.47-9.89,9.93-2.82,1.38-5.9,3.15-6.67,6.19-.45,1.74-.02,3.61.82,5.19.4.76.84,1.4,1.31,1.94Z"/>
                  <path class="cls-66" d="m144.36,210.05c-1.07,2.01-.91,4.62.4,6.49.57.81,1.34,1.48,2.25,1.85,2.85,1.14,6-.99,7.8-3.48,2.7-3.74,4.34-8.9,8.7-10.39,2.26-.78,4.89-.36,6.97-1.53,2.92-1.64,3.37-6.2,1.11-8.67-2.26-2.47-6.43-2.64-9.16-.71-2.76,1.95-3.97,5.38-5.98,8.1-1.57,2.12-3.9,4.23-6.46,5.02-2.35.73-4.32.83-5.65,3.31Z"/>
                </g>
                <path class="cls-65" d="m181.43,192.41c1.71.92,2.82,3.02,2.25,4.88-1.06-.17-1.59-1.34-2.36-2.1-.96-.95-2.5-1.25-3.75-.75-1.12.45-5.97,3.18-4.01-.77,1.12-2.26,6.02-2.26,7.87-1.26Z"/>
              </g>
            </g>
            <path class="cls-78" d="m82.52,220.71c1.93,4.6.41,9.62-3.39,11.22-3.81,1.6-8.46-.83-10.39-5.43s-.41-9.62,3.39-11.22c3.81-1.6,8.46.83,10.39,5.43Z"/>
            <path class="cls-79" d="m216.92,372.82c1.07,10.3,2.14,20.59,3.21,30.89.18,1.69.35,3.42-.05,5.07s-1.2,3.54-2.83,4.05c-2.31.72-4.66.74-7.07.97-3.03.28-5.58,1.41-8.6,1.82-1.61.22-3.29-.35-4.84.13-.9.28-1.66.9-2.52,1.29-1.86.84-4.18.53-5.75-.77s-2.3-3.53-1.82-5.51c.21-.86.81-1.78,1.7-1.79.57,0,1.06.38,1.57.62,1.39.67,3.2.29,4.21-.87,1.17-1.35,1.39-3.61,3.05-4.28,1.71-.68,3.63.92,5.41.45,1.44-.38,2.19-1.95,2.57-3.38,2.23-8.46-2.75-15.7-2.65-23.91.04-3.24.93-3.25,4.01-3.27,1.16,0,10.57.2,10.39-1.52Z"/>
            <path class="cls-11" d="m199.93,378.43c.19,1.71.61,3.39,1.23,4.99.15.38.33.78.66,1.01.63.44,1.48.13,2.21-.09,2.28-.67,4.71-.24,7.08-.1,2.37.14,4.99-.11,6.68-1.78,2.06-2.04,1.97-5.34,1.73-8.22-.07-.89-.34-2-1.21-2.15-.45-.08-.88.15-1.29.35-3.64,1.84-7.06,1.95-11.01,1.89-2.98-.05-6.56-.03-6.09,4.1Z"/>
          </g>
          <g>
            <path class="cls-70" d="m191.92,224.06c-2.08.7-8.84,3.9-9.76,3.45,1.91.93,3.05,3.22,2.63,5.3-.3,1.49-1.3,2.94-.9,4.4.2.74.74,1.34,1.29,1.87,4.2,4,10.1,3.18,14.33,6.75,1.33,1.12,2.32,2.61,3.71,3.65,5.37,4.07,13.89-.02,19.5,3.71,6.22,4.14,4.02,13.84,7.14,20.63,1.22,2.66,3.34,4.98,3.73,7.88.64,4.72-3.42,8.61-6.99,11.77-6.6,5.85-13.24,13.42-12.49,22.21.33,3.82,2.05,7.35,3.19,11,7.72,24.65-10.94,52.67-.85,76.45,1.37,3.22,3.54,6.48,6.92,7.43,4.36,1.24,8.66-1.79,13.03-2.99,9.36-2.58,18.68,3.26,27.84,6.51,9.13,3.23,19.14,3.91,28.62,1.95,8.05-1.67,15.78-5.2,23.99-5.44,6.53-.19,12.92,1.73,19.42,2.36,6.5.63,13.74-.35,18.18-5.13.61-.66,1.17-1.4,1.41-2.26.32-1.12.08-2.33-.33-3.42-2.19-5.74-8.8-8.61-14.93-9.02-6.13-.41-12.25,1.01-18.4.91-3.14-.05-6.94-1.06-7.72-4.1-.34-1.35.03-2.77-.12-4.15-.43-3.97-4.81-6.21-8.74-6.92-9.45-1.72-20.74.57-27.46-6.29-4.24-4.33-5-11.07-4-17.05,1-5.98,3.48-11.61,4.86-17.51,2.66-11.33,1.08-23.61-4.36-33.9-1.8-3.4-4.03-6.69-4.71-10.47-1.11-6.23,2.2-12.33,3.09-18.59,1.23-8.62-2.26-17.38-7.64-24.22s-12.52-12.05-19.67-17.02c-6.02-4.18-12.18-8.29-19.05-10.84-7.55-2.8-16.19-2.79-24.02-1.19-3.46.71-6.96,1.35-10.41,2.19-.09.02-.21.06-.34.1Z"/>
            <polygon class="cls-48" points="197.13 228.65 198.55 230.02 200.49 229.63 199.62 231.4 200.59 233.12 198.64 232.85 197.31 234.3 196.96 232.36 195.16 231.54 196.91 230.61 197.13 228.65"/>
            <polygon class="cls-55" points="227.01 227.08 228.43 228.45 230.36 228.06 229.5 229.84 230.47 231.55 228.52 231.28 227.18 232.74 226.84 230.79 225.04 229.97 226.79 229.05 227.01 227.08"/>
            <polygon class="cls-54" points="215.96 242.32 217.38 243.69 219.32 243.3 218.45 245.08 219.43 246.79 217.47 246.52 216.14 247.98 215.79 246.03 214 245.21 215.74 244.29 215.96 242.32"/>
            <polygon class="cls-53" points="246.63 248.58 248.05 249.95 249.99 249.55 249.12 251.33 250.1 253.05 248.14 252.77 246.81 254.23 246.46 252.28 244.67 251.47 246.41 250.54 246.63 248.58"/>
            <polygon class="cls-52" points="235.69 297.63 237.11 299 239.05 298.61 238.18 300.38 239.16 302.1 237.2 301.83 235.87 303.28 235.52 301.34 233.73 300.52 235.47 299.59 235.69 297.63"/>
            <polygon class="cls-46" points="262.25 280.77 263.68 282.14 265.61 281.75 264.75 283.52 265.72 285.24 263.76 284.97 262.43 286.42 262.08 284.48 260.29 283.66 262.03 282.73 262.25 280.77"/>
            <polygon class="cls-42" points="232.75 367.07 234.17 368.45 236.11 368.05 235.24 369.83 236.21 371.54 234.26 371.27 232.93 372.73 232.58 370.78 230.79 369.96 232.53 369.04 232.75 367.07"/>
            <polygon class="cls-43" points="256.42 349.32 257.84 350.69 259.78 350.3 258.91 352.07 259.89 353.79 257.93 353.52 256.6 354.97 256.25 353.03 254.46 352.21 256.2 351.28 256.42 349.32"/>
            <polygon class="cls-44" points="282.19 403.18 283.61 404.55 285.54 404.16 284.68 405.94 285.65 407.65 283.7 407.38 282.36 408.84 282.02 406.89 280.22 406.07 281.97 405.15 282.19 403.18"/>
            <polygon class="cls-41" points="271.29 379.82 272.71 381.19 274.64 380.8 273.78 382.57 274.75 384.29 272.8 384.02 271.46 385.47 271.12 383.53 269.32 382.71 271.06 381.78 271.29 379.82"/>
            <polygon class="cls-45" points="245.3 393.58 246.72 394.95 248.65 394.56 247.79 396.33 248.76 398.05 246.81 397.78 245.47 399.23 245.13 397.29 243.33 396.47 245.07 395.54 245.3 393.58"/>
            <polygon class="cls-39" points="327.58 399.48 329 400.85 330.93 400.46 330.07 402.24 331.04 403.95 329.09 403.68 327.75 405.14 327.41 403.19 325.61 402.37 327.36 401.45 327.58 399.48"/>
            <polygon class="cls-40" points="238.05 329.07 239.47 330.44 241.4 330.05 240.54 331.83 241.51 333.54 239.55 333.27 238.22 334.73 237.88 332.78 236.08 331.96 237.82 331.04 238.05 329.07"/>
            <polygon class="cls-38" points="266.39 318.17 267.81 319.54 269.75 319.15 268.88 320.92 269.85 322.64 267.9 322.37 266.57 323.82 266.22 321.88 264.43 321.06 266.17 320.13 266.39 318.17"/>
            <polygon class="cls-37" points="243.34 270.52 244.76 271.89 246.7 271.49 245.83 273.27 246.8 274.98 244.85 274.71 243.52 276.17 243.17 274.22 241.38 273.4 243.12 272.48 243.34 270.52"/>
            <path class="cls-5" d="m315.27,390.62c-2.99,3.17-7.36,4.77-11.7,5.21-4.34.43-8.71-.19-13.02-.87"/>
            <path class="cls-5" d="m314.9,390.82c-1.08,5.07-5.78,9.15-10.95,9.5"/>
            <path class="cls-5" d="m231.76,278.27c3,3.31,6.71,5.89,9.97,8.95,3.26,3.06,6.16,6.83,6.8,11.25"/>
            <path class="cls-5" d="m260.93,412.81c-15.49-5.3-12.52-6.76-17.91-11.08-5.38-4.32-10.16-10.25-10.4-17.15"/>
          </g>
          <g>
            <polygon class="cls-32" points="336.03 259.5 360.32 413.02 348.18 413.24 306.49 259.5 336.03 259.5"/>
            <polyline class="cls-33" points="72.32 257.84 58.17 412.99 69.53 412.99 100.08 264.29 101.67 253.21 72.32 257.84"/>
            <polygon class="cls-8" points="100.77 259.5 99.64 266.42 71.63 265.39 72.17 259.5 100.77 259.5"/>
            <polygon class="cls-8" points="336.03 259.5 337.17 266.58 308.23 265.79 306.49 259.5 336.03 259.5"/>
            <rect class="cls-31" x="49.71" y="249.48" width="310.61" height="10.02"/>
          </g>
          <path class="cls-5" d="m205.19,289.33c-1.08,3.81-4.49,6.85-8.4,7.5"/>
          <path class="cls-5" d="m166.53,292.44c-.18,2.18-1.65,4.19-3.67,5.03"/>
          <path class="cls-4" d="m156.87,234.21c.75,4.32,2.76,10.93,4.07,15.12"/>
        </g>
      </g>
    </g>
  </g>
</svg>