<?xml version="1.0" encoding="UTF-8"?>
<svg xmlns="http://www.w3.org/2000/svg" viewBox="0 0 120 122.19">
  <defs>
    <style>
      .cls-1, .cls-2 {
        fill: none;
      }

      .cls-3, .cls-4 {
        mix-blend-mode: multiply;
      }

      .cls-3, .cls-5, .cls-6, .cls-7, .cls-8, .cls-9, .cls-10, .cls-11 {
        fill: #452cdd;
      }

      .cls-5 {
        opacity: .2;
      }

      .cls-12 {
        isolation: isolate;
      }

      .cls-2 {
        mix-blend-mode: screen;
      }

      .cls-6 {
        opacity: .6;
      }

      .cls-7 {
        opacity: .5;
      }

      .cls-8 {
        opacity: .85;
      }

      .cls-9 {
        opacity: .8;
      }

      .cls-10 {
        opacity: .7;
      }

      .cls-11 {
        opacity: .4;
      }
    </style>
  </defs>
  <g class="cls-12">
    <g id="_레이어_2" data-name="레이어 2">
      <g id="Media_Icons" data-name="Media Icons">
        <g>
          <g>
            <rect class="cls-1" width="120" height="120" rx="20" ry="20"/>
            <path class="cls-2" d="m2,102V22C2,11,11,2,22,2h80c4.99,0,9.56,1.87,13.08,4.92-3.67-4.23-9.07-6.92-15.08-6.92H20C9,0,0,9,0,20v80c0,6.01,2.7,11.4,6.92,15.08-3.05-3.51-4.92-8.08-4.92-13.08Z"/>
          </g>
          <g class="cls-4">
            <path class="cls-3" d="m60,42.98c-3.43,0-6.21-2.78-6.21-6.21v-11.19c0-3.43,2.78-6.21,6.21-6.21s6.21,2.78,6.21,6.21v11.19c0,3.43-2.78,6.21-6.21,6.21Z"/>
            <path class="cls-5" d="m77.55,50.24c-1.59,0-3.18-.61-4.39-1.82-2.42-2.42-2.42-6.35,0-8.78l7.9-7.9c2.42-2.42,6.35-2.42,8.78,0,2.42,2.42,2.42,6.35,0,8.78l-7.9,7.9c-1.21,1.21-2.8,1.82-4.39,1.82Z"/>
            <path class="cls-11" d="m96,67.79h-11.17c-3.43,0-6.21-2.78-6.21-6.21s2.78-6.21,6.21-6.21h11.17c3.43,0,6.21,2.78,6.21,6.21s-2.78,6.21-6.21,6.21Z"/>
            <path class="cls-7" d="m85.45,93.24c-1.59,0-3.18-.61-4.39-1.82l-7.9-7.9c-2.42-2.42-2.42-6.35,0-8.78,2.42-2.42,6.35-2.42,8.78,0l7.9,7.9c2.42,2.42,2.42,6.35,0,8.78-1.21,1.21-2.8,1.82-4.39,1.82Z"/>
            <path class="cls-6" d="m60,103.79c-3.43,0-6.21-2.78-6.21-6.21v-11.17c0-3.43,2.78-6.21,6.21-6.21s6.21,2.78,6.21,6.21v11.17c0,3.43-2.78,6.21-6.21,6.21Z"/>
            <path class="cls-10" d="m34.55,93.24c-1.59,0-3.18-.61-4.39-1.82-2.42-2.42-2.42-6.35,0-8.78l7.91-7.91c2.42-2.42,6.35-2.42,8.78,0,2.42,2.42,2.42,6.35,0,8.78l-7.91,7.91c-1.21,1.21-2.8,1.82-4.39,1.82Z"/>
            <path class="cls-9" d="m35.18,67.79h-11.17c-3.43,0-6.21-2.78-6.21-6.21s2.78-6.21,6.21-6.21h11.17c3.43,0,6.21,2.78,6.21,6.21s-2.78,6.21-6.21,6.21Z"/>
            <path class="cls-8" d="m42.45,50.24c-1.59,0-3.18-.61-4.39-1.82l-7.9-7.9c-2.42-2.42-2.42-6.35,0-8.78,2.42-2.42,6.35-2.42,8.78,0l7.9,7.9c2.42,2.42,2.42,6.35,0,8.78-1.21,1.21-2.8,1.82-4.39,1.82Z"/>
          </g>
        </g>
      </g>
    </g>
  </g>
</svg>